<?xml version="1.0" encoding="UTF-8"?> <svg xmlns="http://www.w3.org/2000/svg" width="209.065" height="24.001" viewBox="0 0 209.065 24.001"><g id="logo-horizontal" transform="translate(22621 23641)"><path id="Path_12" data-name="Path 12" d="M68.252,21.843h3.47l1.221-1.73h6.3l.653,1.73h3.457l-3.805-9.786H75.5Zm8.855-7.516L78.459,18H74.486Z" transform="translate(-22640.65 -23644.471)" fill="#002857" fill-rule="evenodd"></path><path id="Path_13" data-name="Path 13" d="M92.091,21.843h3.023l1.267-7.029h.028l2.8,7.029h2.324l5.339-7.029h.028l-1.268,7.029h3.023l1.764-9.786h-4.771L101,18.356l-2.377-6.3H93.855Z" transform="translate(-22647.514 -23644.471)" fill="#002857"></path><path id="Path_14" data-name="Path 14" d="M119.294,21.843h11.265l.424-2.352h-8.159l.283-1.568h7.557l.365-2.027h-7.557l.283-1.568h7.976l.409-2.271H121.058Z" transform="translate(-22655.344 -23644.471)" fill="#002857"></path><path id="Path_15" data-name="Path 15" d="M143.165,14.49h4.856c.979,0,1.4.162,1.242,1.027l-.058.325c-.127.7-.493,1.028-1.332,1.028h-5.136Zm-4.432,7.353h3.106L142.3,19.3h4.884c.966,0,1.213.338,1.028,1.365L148,21.843H151.1l.3-1.663c.29-1.609-.409-2-1.3-2.163l0-.027a2.5,2.5,0,0,0,2.169-2.405l.112-.622c.317-1.757-.12-2.906-2.513-2.906H140.5Z" transform="translate(-22660.941 -23644.471)" fill="#002857" fill-rule="evenodd"></path><path id="Path_16" data-name="Path 16" d="M171.136,19.272c-.383,2.122.658,2.636,3.485,2.636h3.764c4.128,0,5.129-.432,5.6-3.068.513-2.852-.555-3.136-5.384-3.123-3.333.014-3.706-.014-3.553-.865.1-.527.612-.757,1.312-.757h3.443c1.427,0,1.458.3,1.328,1.014h3.107l.056-.311c.31-1.716.186-2.893-3.4-2.893h-4.338c-3.918,0-4.332,1.366-4.651,3.136-.434,2.406,0,2.947,4.674,2.947,4,0,4.357.054,4.2.906-.137.757-.82.825-1.478.825H175.5c-.9,0-1.315-.081-1.14-1.122h-3.107Z" transform="translate(-22670.248 -23644.428)" fill="#002857"></path><path id="Path_17" data-name="Path 17" d="M192.144,21.843h3.106l.444-2.46h6.171a3.448,3.448,0,0,0,3.42-3.136l.151-.838c.346-1.919-.11-3.352-3.062-3.352h-8.466Zm4.432-7.353h4.562c.938,0,1.2.378,1.086,1.041l-.068.378a1.146,1.146,0,0,1-1.195,1.041h-4.828Z" transform="translate(-22676.318 -23644.471)" fill="#002857" fill-rule="evenodd"></path><path id="Path_18" data-name="Path 18" d="M213.175,18.366c-.516,2.865,1.027,3.541,3.826,3.541h4.981c2.8,0,4.587-.676,5.1-3.541l.526-2.92c.516-2.865-1.027-3.541-3.826-3.541H218.8c-2.8,0-4.586.676-5.1,3.541Zm3.549-1.987a1.988,1.988,0,0,1,2.3-1.96h3.638c1.637,0,1.811.743,1.592,1.96l-.191,1.055c-.256,1.419-.661,1.96-2.131,1.96h-3.974c-1.47,0-1.68-.54-1.424-1.96Z" transform="translate(-22682.344 -23644.428)" fill="#002857" fill-rule="evenodd"></path><path id="Path_19" data-name="Path 19" d="M239.929,14.49h4.856c.98,0,1.4.162,1.242,1.027l-.058.325c-.127.7-.493,1.028-1.332,1.028H239.5ZM235.5,21.843H238.6l.457-2.541h4.885c.965,0,1.212.338,1.027,1.365l-.211,1.176h3.105l.3-1.663c.29-1.609-.409-2-1.3-2.163l0-.027a2.5,2.5,0,0,0,2.169-2.405l.112-.622c.317-1.757-.12-2.906-2.512-2.906h-9.376Z" transform="translate(-22688.801 -23644.471)" fill="#002857" fill-rule="evenodd"></path><path id="Path_20" data-name="Path 20" d="M257.088,14.49h4.366l-1.326,7.353h3.107l1.326-7.353h4.366l.439-2.433H257.527Z" transform="translate(-22695.016 -23644.471)" fill="#002857"></path><path id="Path_21" data-name="Path 21" d="M274.918,19.272c-.383,2.122.658,2.636,3.484,2.636h3.765c4.128,0,5.129-.432,5.6-3.068.513-2.852-.554-3.136-5.385-3.123-3.333.014-3.706-.014-3.552-.865.095-.527.612-.757,1.312-.757h3.442c1.427,0,1.458.3,1.329,1.014h3.107l.056-.311c.31-1.716.186-2.893-3.4-2.893h-4.338c-3.918,0-4.332,1.366-4.651,3.136-.434,2.406,0,2.947,4.675,2.947,4,0,4.356.054,4.2.906-.137.757-.821.825-1.478.825h-3.806c-.9,0-1.315-.081-1.141-1.122H275.04Z" transform="translate(-22700.125 -23644.428)" fill="#002857"></path><path id="Path_22" data-name="Path 22" d="M33.34,10.083c.746-.239.9.228.74.719a34.6,34.6,0,0,0-1.315,4.218.891.891,0,0,1-.956.733c-2.64-.255-5.326-.451-8.789-.568-.758-.039-.862-.43.053-.9a75.979,75.979,0,0,1,10.268-4.2m4.086-3.489c.607-.177.842.234.628.625A35.236,35.236,0,0,0,34.4,17.538a.761.761,0,0,1-.88.571,100.434,100.434,0,0,0-18.843-.619c-.949.031-1.092-.313.465-1.268a81.315,81.315,0,0,1,22.28-9.629m5.046-2.509c-2.908,4.221-5.72,9.891-6.207,15.691a.792.792,0,0,1-1.006.714,98.424,98.424,0,0,0-27.77-.117c-.963.1-.981-.453.35-1.515C16.81,11.488,29.032,6.229,41.743,3.3c.725-.2,1.1.25.728.785M47.76.826c-5.816,6.687-9.776,14.186-9.37,21.56.025.476-.335.768-.856.686C26.107,20.744,11.385,21.1.657,23.961a1.063,1.063,0,0,1-.473.021.235.235,0,0,1-.179-.291c.043-.276.39-.766,1.184-1.574C12.23,10.336,30.432,2.8,47.419.006c.532-.065.676.434.341.82" transform="translate(-22621 -23641)" fill="#002857" fill-rule="evenodd"></path></g></svg> 