<svg width="21" height="20" viewBox="0 0 21 20" fill="none" xmlns="http://www.w3.org/2000/svg">
<path d="M10.5 18.3333C5.89746 18.3333 2.16663 14.6025 2.16663 9.99996C2.16663 5.39746 5.89746 1.66663 10.5 1.66663C15.1025 1.66663 18.8333 5.39746 18.8333 9.99996C18.8333 14.6025 15.1025 18.3333 10.5 18.3333ZM10.5 16.6666C12.2681 16.6666 13.9638 15.9642 15.214 14.714C16.4642 13.4638 17.1666 11.7681 17.1666 9.99996C17.1666 8.23185 16.4642 6.53616 15.214 5.28591C13.9638 4.03567 12.2681 3.33329 10.5 3.33329C8.73185 3.33329 7.03616 4.03567 5.78591 5.28591C4.53567 6.53616 3.83329 8.23185 3.83329 9.99996C3.83329 11.7681 4.53567 13.4638 5.78591 14.714C7.03616 15.9642 8.73185 16.6666 10.5 16.6666ZM11.3333 10.8333V14.1666C11.3333 14.3876 11.2455 14.5996 11.0892 14.7559C10.9329 14.9122 10.721 15 10.5 15C10.2789 15 10.067 14.9122 9.9107 14.7559C9.75442 14.5996 9.66663 14.3876 9.66663 14.1666V10.8333H6.33329C6.11228 10.8333 5.90032 10.7455 5.74404 10.5892C5.58776 10.4329 5.49996 10.221 5.49996 9.99996C5.49996 9.77894 5.58776 9.56698 5.74404 9.4107C5.90032 9.25442 6.11228 9.16663 6.33329 9.16663H9.66663V5.83329C9.66663 5.61228 9.75442 5.40032 9.9107 5.24404C10.067 5.08776 10.2789 4.99996 10.5 4.99996C10.721 4.99996 10.9329 5.08776 11.0892 5.24404C11.2455 5.40032 11.3333 5.61228 11.3333 5.83329V9.16663H14.6666C14.8876 9.16663 15.0996 9.25442 15.2559 9.4107C15.4122 9.56698 15.5 9.77894 15.5 9.99996C15.5 10.221 15.4122 10.4329 15.2559 10.5892C15.0996 10.7455 14.8876 10.8333 14.6666 10.8333H11.3333Z" fill="#B2B0B0"/>
</svg>
