<svg width="21" height="20" viewBox="0 0 21 20" fill="none" xmlns="http://www.w3.org/2000/svg">
<path d="M17.1667 10.9083V5.83333C17.1667 3.99167 14.1834 2.5 10.5 2.5C6.81671 2.5 3.83337 3.99167 3.83337 5.83333V14.1667C3.83337 16.0083 6.82504 17.5 10.5 17.5C10.8834 17.5 11.25 17.5 11.6084 17.45C11.4275 16.9301 11.3345 16.3838 11.3334 15.8333V15.7917C11.0667 15.8333 10.7917 15.8333 10.5 15.8333C7.27504 15.8333 5.50004 14.5833 5.50004 14.1667V12.3083C6.84171 12.9583 8.60004 13.3333 10.5 13.3333C11.0417 13.3333 11.5584 13.3 12.0667 13.2417C12.5106 12.5071 13.1366 11.8995 13.884 11.4776C14.6314 11.0557 15.4751 10.8338 16.3334 10.8333C16.6167 10.8333 16.8917 10.8667 17.1667 10.9083ZM15.5 10.375C14.4167 11.1667 12.5167 11.6667 10.5 11.6667C8.48337 11.6667 6.58337 11.1667 5.50004 10.375V8.03333C6.72504 8.725 8.50837 9.16667 10.5 9.16667C12.4917 9.16667 14.275 8.725 15.5 8.03333V10.375ZM10.5 7.5C7.27504 7.5 5.50004 6.25 5.50004 5.83333C5.50004 5.41667 7.27504 4.16667 10.5 4.16667C13.725 4.16667 15.5 5.41667 15.5 5.83333C15.5 6.25 13.725 7.5 10.5 7.5ZM19.6667 15V16.6667H17.1667V19.1667H15.5V16.6667H13V15H15.5V12.5H17.1667V15H19.6667Z" fill="#B2B0B0"/>
</svg>
