<svg width="20" height="20" viewBox="0 0 20 20" fill="none" xmlns="http://www.w3.org/2000/svg">
<g clip-path="url(#clip0_1_3246)">
<path fill-rule="evenodd" clip-rule="evenodd" d="M10 0.833313C4.93754 0.833313 0.833374 4.93748 0.833374 9.99998C0.833374 15.0625 4.93754 19.1666 10 19.1666C15.0625 19.1666 19.1667 15.0625 19.1667 9.99998C19.1667 4.93748 15.0625 0.833313 10 0.833313ZM13.9734 8.44998C14.0465 8.36635 14.1022 8.26893 14.1372 8.16345C14.1722 8.05798 14.1857 7.94658 14.1769 7.8358C14.1682 7.72503 14.1374 7.61712 14.0864 7.51842C14.0353 7.41972 13.965 7.33223 13.8797 7.2611C13.7943 7.18996 13.6956 7.13662 13.5893 7.1042C13.483 7.07178 13.3713 7.06095 13.2608 7.07234C13.1502 7.08372 13.0431 7.1171 12.9457 7.17051C12.8482 7.22391 12.7624 7.29627 12.6934 7.38331L9.11004 11.6825L7.25587 9.82748C7.09871 9.67568 6.8882 9.59169 6.66971 9.59359C6.45121 9.59548 6.2422 9.68312 6.08769 9.83763C5.93319 9.99214 5.84554 10.2011 5.84365 10.4196C5.84175 10.6381 5.92574 10.8486 6.07754 11.0058L8.57754 13.5058C8.65942 13.5876 8.75745 13.6515 8.86539 13.6934C8.97332 13.7352 9.08879 13.7541 9.20443 13.7489C9.32007 13.7436 9.43335 13.7143 9.53705 13.6629C9.64075 13.6114 9.73258 13.5389 9.80671 13.45L13.9734 8.44998Z" fill="#59D090"/>
</g>
<defs>
<clipPath id="clip0_1_3246">
<rect width="20" height="20" fill="white"/>
</clipPath>
</defs>
</svg>
