<svg width="20" height="20" viewBox="0 0 20 20" fill="none" xmlns="http://www.w3.org/2000/svg">
<path d="M18.3333 4.16669V5.83335H15.8333V8.33335H14.1667V5.83335H11.6667V4.16669H14.1667V1.66669H15.8333V4.16669H18.3333ZM15.8333 15.8334H4.16667V4.16669H9.16667V2.50002H4.16667C3.72504 2.50134 3.30189 2.67736 2.98961 2.98963C2.67734 3.30191 2.50132 3.72507 2.5 4.16669V15.8334C2.50132 16.275 2.67734 16.6981 2.98961 17.0104C3.30189 17.3227 3.72504 17.4987 4.16667 17.5H15.8333C16.275 17.4987 16.6981 17.3227 17.0104 17.0104C17.3227 16.6981 17.4987 16.275 17.5 15.8334V10.8334H15.8333V15.8334Z" fill="#B2B0B0"/>
</svg>
