<svg width="20" height="20" viewBox="0 0 20 20" fill="none" xmlns="http://www.w3.org/2000/svg">
<path d="M9.99996 1.66669C5.39163 1.66669 1.66663 5.39169 1.66663 10C1.66663 14.6084 5.39163 18.3334 9.99996 18.3334C14.6083 18.3334 18.3333 14.6084 18.3333 10C18.3333 5.39169 14.6083 1.66669 9.99996 1.66669ZM13.5833 13.5834C13.5062 13.6606 13.4146 13.7219 13.3138 13.7637C13.213 13.8055 13.1049 13.8271 12.9958 13.8271C12.8867 13.8271 12.7786 13.8055 12.6778 13.7637C12.577 13.7219 12.4854 13.6606 12.4083 13.5834L9.99996 11.175L7.59163 13.5834C7.43581 13.7392 7.22448 13.8267 7.00413 13.8267C6.78377 13.8267 6.57244 13.7392 6.41663 13.5834C6.26081 13.4275 6.17328 13.2162 6.17328 12.9959C6.17328 12.8867 6.19477 12.7787 6.23652 12.6779C6.27827 12.5771 6.33947 12.4855 6.41663 12.4084L8.82496 10L6.41663 7.59169C6.26081 7.43587 6.17328 7.22454 6.17328 7.00419C6.17328 6.78383 6.26081 6.5725 6.41663 6.41669C6.57244 6.26087 6.78377 6.17334 7.00413 6.17334C7.22448 6.17334 7.43581 6.26087 7.59163 6.41669L9.99996 8.82502L12.4083 6.41669C12.4854 6.33954 12.577 6.27834 12.6778 6.23658C12.7786 6.19483 12.8867 6.17334 12.9958 6.17334C13.1049 6.17334 13.2129 6.19483 13.3137 6.23658C13.4145 6.27834 13.5061 6.33954 13.5833 6.41669C13.6604 6.49384 13.7216 6.58543 13.7634 6.68623C13.8052 6.78704 13.8266 6.89508 13.8266 7.00419C13.8266 7.1133 13.8052 7.22134 13.7634 7.32214C13.7216 7.42294 13.6604 7.51453 13.5833 7.59169L11.175 10L13.5833 12.4084C13.9 12.725 13.9 13.2584 13.5833 13.5834Z" fill="#E31837"/>
</svg>
