<svg width="25" height="24" viewBox="0 0 25 24" fill="none" xmlns="http://www.w3.org/2000/svg">
<path d="M20.5 6H12.5L11.09 4.59C10.71 4.21 10.2 4 9.67 4H4.5C3.39 4 2.51 4.89 2.51 6L2.5 18C2.5 19.11 3.39 20 4.5 20H20.5C21.6 20 22.5 19.1 22.5 18V8C22.5 6.9 21.6 6 20.5 6ZM18.5 14H16.5V16C16.5 16.55 16.05 17 15.5 17C14.95 17 14.5 16.55 14.5 16V14H12.5C11.95 14 11.5 13.55 11.5 13C11.5 12.45 11.95 12 12.5 12H14.5V10C14.5 9.45 14.95 9 15.5 9C16.05 9 16.5 9.45 16.5 10V12H18.5C19.05 12 19.5 12.45 19.5 13C19.5 13.55 19.05 14 18.5 14Z" fill="#BF0B34"/>
</svg>
