<svg width="21" height="20" viewBox="0 0 21 20" fill="none" xmlns="http://www.w3.org/2000/svg">
<path fill-rule="evenodd" clip-rule="evenodd" d="M10.335 3.51545C6.56867 3.51545 3.51545 6.56867 3.51545 10.335C3.51545 14.1013 6.56867 17.1545 10.335 17.1545C14.1013 17.1545 17.1545 14.1013 17.1545 10.335C17.1545 6.56867 14.1013 3.51545 10.335 3.51545ZM2 10.335C2 5.73171 5.73171 2 10.335 2C14.9383 2 18.67 5.73171 18.67 10.335C18.67 14.9383 14.9383 18.67 10.335 18.67C5.73171 18.67 2 14.9383 2 10.335ZM6.54636 10.335C6.54636 9.91652 6.88561 9.57727 7.30409 9.57727H13.3659C13.7844 9.57727 14.1236 9.91652 14.1236 10.335C14.1236 10.7535 13.7844 11.0927 13.3659 11.0927H7.30409C6.88561 11.0927 6.54636 10.7535 6.54636 10.335Z" fill="#B2B0B0"/>
</svg>
