<svg width="20" height="20" viewBox="0 0 20 20" fill="none" xmlns="http://www.w3.org/2000/svg">
<path d="M2.75 5C2.55109 5 2.36032 5.07902 2.21967 5.21967C2.07902 5.36032 2 5.55109 2 5.75C2 5.94891 2.07902 6.13968 2.21967 6.28033C2.36032 6.42098 2.55109 6.5 2.75 6.5H17.25C17.4489 6.5 17.6397 6.42098 17.7803 6.28033C17.921 6.13968 18 5.94891 18 5.75C18 5.55109 17.921 5.36032 17.7803 5.21967C17.6397 5.07902 17.4489 5 17.25 5H2.75ZM2.75 8C2.55109 8 2.36032 8.07902 2.21967 8.21967C2.07902 8.36032 2 8.55109 2 8.75C2 8.94891 2.07902 9.13968 2.21967 9.28033C2.36032 9.42098 2.55109 9.5 2.75 9.5H12.206C12.9256 9.16956 13.7082 8.99898 14.5 9C15.2918 8.99898 16.0744 9.16956 16.794 9.5H17.25C17.4489 9.5 17.6397 9.42098 17.7803 9.28033C17.921 9.13968 18 8.94891 18 8.75C18 8.55109 17.921 8.36032 17.7803 8.21967C17.6397 8.07902 17.4489 8 17.25 8H2.75ZM2.75 11H10.257C9.8852 11.45 9.58746 11.9563 9.375 12.5H2.75C2.55109 12.5 2.36032 12.421 2.21967 12.2803C2.07902 12.1397 2 11.9489 2 11.75C2 11.5511 2.07902 11.3603 2.21967 11.2197C2.36032 11.079 2.55109 11 2.75 11ZM2.75 14H9.022C8.9772 14.5008 9.00041 15.0054 9.091 15.5H2.75C2.55109 15.5 2.36032 15.421 2.21967 15.2803C2.07902 15.1397 2 14.9489 2 14.75C2 14.5511 2.07902 14.3603 2.21967 14.2197C2.36032 14.079 2.55109 14 2.75 14ZM19 14.5C19 15.6935 18.5259 16.8381 17.682 17.682C16.8381 18.5259 15.6935 19 14.5 19C13.3065 19 12.1619 18.5259 11.318 17.682C10.4741 16.8381 10 15.6935 10 14.5C10 13.3065 10.4741 12.1619 11.318 11.318C12.1619 10.4741 13.3065 10 14.5 10C15.6935 10 16.8381 10.4741 17.682 11.318C18.5259 12.1619 19 13.3065 19 14.5ZM14.5 12C14.3674 12 14.2402 12.0527 14.1464 12.1464C14.0527 12.2402 14 12.3674 14 12.5V14.5C14 14.6326 14.0527 14.7598 14.1464 14.8536C14.2402 14.9473 14.3674 15 14.5 15C14.6326 15 14.7598 14.9473 14.8536 14.8536C14.9473 14.7598 15 14.6326 15 14.5V12.5C15 12.3674 14.9473 12.2402 14.8536 12.1464C14.7598 12.0527 14.6326 12 14.5 12ZM14.5 17.125C14.6658 17.125 14.8247 17.0592 14.9419 16.9419C15.0592 16.8247 15.125 16.6658 15.125 16.5C15.125 16.3342 15.0592 16.1753 14.9419 16.0581C14.8247 15.9408 14.6658 15.875 14.5 15.875C14.3342 15.875 14.1753 15.9408 14.0581 16.0581C13.9408 16.1753 13.875 16.3342 13.875 16.5C13.875 16.6658 13.9408 16.8247 14.0581 16.9419C14.1753 17.0592 14.3342 17.125 14.5 17.125Z" fill="#B2B0B0"/>
</svg>
