<svg width="21" height="20" viewBox="0 0 21 20" fill="none" xmlns="http://www.w3.org/2000/svg">
<path d="M7.585 3C7.68844 2.70742 7.88008 2.45413 8.13351 2.27503C8.38694 2.09593 8.68967 1.99984 9 2H12C12.3103 1.99984 12.6131 2.09593 12.8665 2.27503C13.1199 2.45413 13.3116 2.70742 13.415 3H15C15.3978 3 15.7794 3.15804 16.0607 3.43934C16.342 3.72064 16.5 4.10218 16.5 4.5V9.232C16.174 9.372 15.869 9.575 15.603 9.841L11.443 14H7C6.86739 14 6.74021 14.0527 6.64645 14.1464C6.55268 14.2402 6.5 14.3674 6.5 14.5C6.5 14.6326 6.55268 14.7598 6.64645 14.8536C6.74021 14.9473 6.86739 15 7 15H10.486C10.226 15.343 10.038 15.735 9.933 16.155L9.558 17.653C9.52955 17.7668 9.51147 17.8829 9.504 18H6C5.60218 18 5.22064 17.842 4.93934 17.5607C4.65804 17.2794 4.5 16.8978 4.5 16.5V4.5C4.5 4.10218 4.65804 3.72064 4.93934 3.43934C5.22064 3.15804 5.60218 3 6 3H7.585ZM12.5 3.5C12.5 3.36739 12.4473 3.24022 12.3536 3.14645C12.2598 3.05268 12.1326 3 12 3H9C8.86739 3 8.74021 3.05268 8.64645 3.14645C8.55268 3.24022 8.5 3.36739 8.5 3.5C8.5 3.63261 8.55268 3.75979 8.64645 3.85355C8.74021 3.94732 8.86739 4 9 4H12C12.1326 4 12.2598 3.94732 12.3536 3.85355C12.4473 3.75979 12.5 3.63261 12.5 3.5ZM14 8H7C6.86739 8 6.74021 8.05268 6.64645 8.14645C6.55268 8.24021 6.5 8.36739 6.5 8.5C6.5 8.63261 6.55268 8.75979 6.64645 8.85355C6.74021 8.94732 6.86739 9 7 9H14C14.1326 9 14.2598 8.94732 14.3536 8.85355C14.4473 8.75979 14.5 8.63261 14.5 8.5C14.5 8.36739 14.4473 8.24021 14.3536 8.14645C14.2598 8.05268 14.1326 8 14 8ZM10.5 11.5C10.5 11.3674 10.4473 11.2402 10.3536 11.1464C10.2598 11.0527 10.1326 11 10 11H7C6.86739 11 6.74021 11.0527 6.64645 11.1464C6.55268 11.2402 6.5 11.3674 6.5 11.5C6.5 11.6326 6.55268 11.7598 6.64645 11.8536C6.74021 11.9473 6.86739 12 7 12H10C10.1326 12 10.2598 11.9473 10.3536 11.8536C10.4473 11.7598 10.5 11.6326 10.5 11.5ZM11.48 15.377L16.31 10.547C16.4837 10.3734 16.69 10.2357 16.9169 10.1418C17.1439 10.0479 17.3871 9.99961 17.6327 9.9997C17.8783 9.9998 18.1215 10.0483 18.3484 10.1423C18.5753 10.2364 18.7814 10.3743 18.955 10.548C19.1286 10.7217 19.2663 10.928 19.3602 11.1549C19.4541 11.3819 19.5024 11.6251 19.5023 11.8707C19.5022 12.1163 19.4537 12.3595 19.3597 12.5864C19.2656 12.8133 19.1277 13.0194 18.954 13.193L14.124 18.022C13.8426 18.3035 13.4901 18.5033 13.104 18.6L11.606 18.974C11.457 19.0111 11.301 19.0091 11.1531 18.9681C11.0052 18.9271 10.8703 18.8485 10.7618 18.74C10.6532 18.6315 10.5745 18.4968 10.5333 18.3489C10.4922 18.201 10.49 18.045 10.527 17.896L10.902 16.398C10.9979 16.0116 11.1978 15.6588 11.48 15.378V15.377Z" fill="#BF0B34"/>
</svg>
