<svg width="20" height="20" viewBox="0 0 20 20" fill="none" xmlns="http://www.w3.org/2000/svg">
<path d="M12.2382 9.59375L5.32007 8.375V17.3806C5.32015 17.4785 5.3395 17.5753 5.37702 17.6657C5.41453 17.756 5.46948 17.8381 5.53872 17.9072C5.60795 17.9764 5.69013 18.0312 5.78055 18.0685C5.87097 18.1059 5.96786 18.1251 6.06569 18.125H18.0032C18.1011 18.1252 18.1982 18.1062 18.2887 18.0689C18.3793 18.0316 18.4616 17.9768 18.531 17.9077C18.6004 17.8385 18.6554 17.7564 18.693 17.666C18.7306 17.5755 18.75 17.4786 18.7501 17.3806V14.0625L12.2382 9.59375Z" fill="#185C37"/>
<path d="M12.2382 1.875H6.06569C5.96786 1.87492 5.87097 1.89411 5.78055 1.93147C5.69013 1.96883 5.60795 2.02364 5.53872 2.09276C5.46948 2.16189 5.41453 2.24397 5.37702 2.33432C5.3395 2.42468 5.32015 2.52154 5.32007 2.61938V5.9375L12.2382 10L15.9013 11.2188L18.7501 10V5.9375L12.2382 1.875Z" fill="#21A366"/>
<path d="M5.32007 5.9375H12.2382V10H5.32007V5.9375Z" fill="#107C41"/>
<path opacity="0.1" d="M10.2713 5.125H5.32007V15.2812H10.2713C10.4686 15.2803 10.6576 15.2016 10.7973 15.0623C10.9369 14.9229 11.0161 14.7342 11.0176 14.5369V5.86937C11.0161 5.67209 10.9369 5.48333 10.7973 5.34399C10.6576 5.20466 10.4686 5.12598 10.2713 5.125Z" fill="black"/>
<path opacity="0.2" d="M9.86444 5.53125H5.32007V15.6875H9.86444C10.0617 15.6865 10.2507 15.6078 10.3904 15.4685C10.5301 15.3292 10.6092 15.1404 10.6107 14.9431V6.27562C10.6092 6.07834 10.5301 5.88958 10.3904 5.75024C10.2507 5.61091 10.0617 5.53223 9.86444 5.53125Z" fill="black"/>
<path opacity="0.2" d="M9.86444 5.53125H5.32007V14.875H9.86444C10.0617 14.874 10.2507 14.7953 10.3904 14.656C10.5301 14.5167 10.6092 14.3279 10.6107 14.1306V6.27562C10.6092 6.07834 10.5301 5.88958 10.3904 5.75024C10.2507 5.61091 10.0617 5.53223 9.86444 5.53125Z" fill="black"/>
<path opacity="0.2" d="M9.45757 5.53125H5.32007V14.875H9.45757C9.65486 14.874 9.84382 14.7953 9.9835 14.656C10.1232 14.5167 10.2023 14.3279 10.2038 14.1306V6.27562C10.2023 6.07834 10.1232 5.88958 9.9835 5.75024C9.84382 5.61091 9.65486 5.53223 9.45757 5.53125Z" fill="black"/>
<path d="M1.99625 5.53125H9.4575C9.65514 5.53109 9.84477 5.6094 9.9847 5.74898C10.1246 5.88856 10.2034 6.07798 10.2038 6.27563V13.7244C10.2034 13.922 10.1246 14.1114 9.9847 14.251C9.84477 14.3906 9.65514 14.4689 9.4575 14.4688H1.99625C1.89836 14.4689 1.8014 14.4498 1.71091 14.4125C1.62042 14.3751 1.53817 14.3203 1.46887 14.2512C1.39956 14.1821 1.34456 14.1 1.30701 14.0096C1.26945 13.9192 1.25008 13.8223 1.25 13.7244V6.27563C1.25008 6.17774 1.26945 6.08083 1.30701 5.99043C1.34456 5.90003 1.39956 5.81792 1.46887 5.74879C1.53817 5.67966 1.62042 5.62487 1.71091 5.58754C1.8014 5.55021 1.89836 5.53109 1.99625 5.53125Z" fill="url(#paint0_linear_1_2210)"/>
<path d="M3.5625 12.4206L5.13188 9.99313L3.69437 7.57938H4.84875L5.63312 9.125C5.70562 9.27125 5.75813 9.38 5.78188 9.4525H5.7925C5.84375 9.335 5.89812 9.22188 5.955 9.11125L6.79375 7.58188H7.85625L6.38188 9.98188L7.89375 12.4225H6.76313L5.85688 10.7281C5.8148 10.6553 5.77904 10.579 5.75 10.5H5.735C5.70857 10.5769 5.67334 10.6505 5.63 10.7194L4.69688 12.4206H3.5625Z" fill="white"/>
<path d="M18.0037 1.875H12.238V5.9375H18.7499V2.61938C18.7498 2.52149 18.7305 2.42458 18.6929 2.33418C18.6553 2.24378 18.6003 2.16167 18.531 2.09254C18.4617 2.02341 18.3795 1.96862 18.289 1.93129C18.1985 1.89396 18.1015 1.87484 18.0037 1.875Z" fill="#33C481"/>
<path d="M12.238 10H18.7499V14.0625H12.238V10Z" fill="#107C41"/>
<defs>
<linearGradient id="paint0_linear_1_2210" x1="2.80875" y1="4.94625" x2="8.645" y2="15.0538" gradientUnits="userSpaceOnUse">
<stop stop-color="#18884F"/>
<stop offset="0.5" stop-color="#117E43"/>
<stop offset="1" stop-color="#0B6631"/>
</linearGradient>
</defs>
</svg>
