<svg width="21" height="20" viewBox="0 0 21 20" fill="none" xmlns="http://www.w3.org/2000/svg">
<path d="M14.0676 9.8175C14.1849 9.70014 14.2508 9.54097 14.2508 9.375C14.2508 9.20903 14.1849 9.04985 14.0676 8.9325C13.9502 8.81514 13.791 8.74921 13.6251 8.74921C13.4591 8.74921 13.2999 8.81514 13.1826 8.9325L9.87506 12.2412L8.44256 10.8075C8.3252 10.6901 8.16603 10.6242 8.00006 10.6242C7.83409 10.6242 7.67492 10.6901 7.55756 10.8075C7.4402 10.9249 7.37427 11.084 7.37427 11.25C7.37427 11.416 7.4402 11.5751 7.55756 11.6925L9.43256 13.5675C9.49061 13.6257 9.55958 13.6719 9.63552 13.7034C9.71145 13.7349 9.79285 13.7511 9.87506 13.7511C9.95727 13.7511 10.0387 13.7349 10.1146 13.7034C10.1905 13.6719 10.2595 13.6257 10.3176 13.5675L14.0676 9.8175Z" fill="#B2B0B0"/>
<path d="M18 17.5V5.625L12.375 0H5.5C4.83696 0 4.20107 0.263392 3.73223 0.732233C3.26339 1.20107 3 1.83696 3 2.5V17.5C3 18.163 3.26339 18.7989 3.73223 19.2678C4.20107 19.7366 4.83696 20 5.5 20H15.5C16.163 20 16.7989 19.7366 17.2678 19.2678C17.7366 18.7989 18 18.163 18 17.5ZM12.375 3.75C12.375 4.24728 12.5725 4.72419 12.9242 5.07583C13.2758 5.42746 13.7527 5.625 14.25 5.625H16.75V17.5C16.75 17.8315 16.6183 18.1495 16.3839 18.3839C16.1495 18.6183 15.8315 18.75 15.5 18.75H5.5C5.16848 18.75 4.85054 18.6183 4.61612 18.3839C4.3817 18.1495 4.25 17.8315 4.25 17.5V2.5C4.25 2.16848 4.3817 1.85054 4.61612 1.61612C4.85054 1.3817 5.16848 1.25 5.5 1.25H12.375V3.75Z" fill="#B2B0B0"/>
</svg>
