<svg width="21" height="20" viewBox="0 0 21 20" fill="none" xmlns="http://www.w3.org/2000/svg">
<path d="M11.1251 8.125C11.1251 7.95924 11.0592 7.80027 10.942 7.68306C10.8248 7.56585 10.6658 7.5 10.5001 7.5C10.3343 7.5 10.1753 7.56585 10.0581 7.68306C9.94091 7.80027 9.87506 7.95924 9.87506 8.125V12.8663L8.44256 11.4325C8.38445 11.3744 8.31546 11.3283 8.23954 11.2968C8.16361 11.2654 8.08224 11.2492 8.00006 11.2492C7.91788 11.2492 7.8365 11.2654 7.76058 11.2968C7.68465 11.3283 7.61567 11.3744 7.55756 11.4325C7.49945 11.4906 7.45335 11.5596 7.4219 11.6355C7.39045 11.7114 7.37427 11.7928 7.37427 11.875C7.37427 11.9572 7.39045 12.0386 7.4219 12.1145C7.45335 12.1904 7.49945 12.2594 7.55756 12.3175L10.0576 14.8175C10.1156 14.8757 10.1846 14.9219 10.2605 14.9534C10.3364 14.9849 10.4178 15.0011 10.5001 15.0011C10.5823 15.0011 10.6637 14.9849 10.7396 14.9534C10.8155 14.9219 10.8845 14.8757 10.9426 14.8175L13.4426 12.3175C13.5007 12.2594 13.5468 12.1904 13.5782 12.1145C13.6097 12.0386 13.6258 11.9572 13.6258 11.875C13.6258 11.7928 13.6097 11.7114 13.5782 11.6355C13.5468 11.5596 13.5007 11.4906 13.4426 11.4325C13.3844 11.3744 13.3155 11.3283 13.2395 11.2968C13.1636 11.2654 13.0822 11.2492 13.0001 11.2492C12.9179 11.2492 12.8365 11.2654 12.7606 11.2968C12.6847 11.3283 12.6157 11.3744 12.5576 11.4325L11.1251 12.8663V8.125Z" fill="#B2B0B0"/>
<path d="M18 17.5V5.625L12.375 0H5.5C4.83696 0 4.20107 0.263392 3.73223 0.732233C3.26339 1.20107 3 1.83696 3 2.5V17.5C3 18.163 3.26339 18.7989 3.73223 19.2678C4.20107 19.7366 4.83696 20 5.5 20H15.5C16.163 20 16.7989 19.7366 17.2678 19.2678C17.7366 18.7989 18 18.163 18 17.5ZM12.375 3.75C12.375 4.24728 12.5725 4.72419 12.9242 5.07583C13.2758 5.42746 13.7527 5.625 14.25 5.625H16.75V17.5C16.75 17.8315 16.6183 18.1495 16.3839 18.3839C16.1495 18.6183 15.8315 18.75 15.5 18.75H5.5C5.16848 18.75 4.85054 18.6183 4.61612 18.3839C4.3817 18.1495 4.25 17.8315 4.25 17.5V2.5C4.25 2.16848 4.3817 1.85054 4.61612 1.61612C4.85054 1.3817 5.16848 1.25 5.5 1.25H12.375V3.75Z" fill="#B2B0B0"/>
</svg>
