<svg width="20" height="20" viewBox="0 0 20 20" fill="none" xmlns="http://www.w3.org/2000/svg">
<path d="M16.6914 5.63867C16.8086 5.75586 16.875 5.91406 16.875 6.08008V18.125C16.875 18.4707 16.5957 18.75 16.25 18.75H3.75C3.4043 18.75 3.125 18.4707 3.125 18.125V1.875C3.125 1.5293 3.4043 1.25 3.75 1.25H12.0449C12.2109 1.25 12.3711 1.31641 12.4883 1.43359L16.6914 5.63867ZM15.4336 6.36719L11.7578 2.69141V6.36719H15.4336ZM6.25 9.41406C6.20856 9.41406 6.16882 9.43052 6.13951 9.45983C6.11021 9.48913 6.09375 9.52887 6.09375 9.57031V10.5078C6.09375 10.5493 6.11021 10.589 6.13951 10.6183C6.16882 10.6476 6.20856 10.6641 6.25 10.6641H13.75C13.7914 10.6641 13.8312 10.6476 13.8605 10.6183C13.8898 10.589 13.9062 10.5493 13.9062 10.5078V9.57031C13.9062 9.52887 13.8898 9.48913 13.8605 9.45983C13.8312 9.43052 13.7914 9.41406 13.75 9.41406H6.25ZM6.25 12.0703C6.20856 12.0703 6.16882 12.0868 6.13951 12.1161C6.11021 12.1454 6.09375 12.1851 6.09375 12.2266V13.1641C6.09375 13.2055 6.11021 13.2452 6.13951 13.2745C6.16882 13.3039 6.20856 13.3203 6.25 13.3203H9.84375C9.88519 13.3203 9.92493 13.3039 9.95424 13.2745C9.98354 13.2452 10 13.2055 10 13.1641V12.2266C10 12.1851 9.98354 12.1454 9.95424 12.1161C9.92493 12.0868 9.88519 12.0703 9.84375 12.0703H6.25Z" fill="#656B77"/>
</svg>
