<svg width="21" height="20" viewBox="0 0 21 20" fill="none" xmlns="http://www.w3.org/2000/svg">
<path fill-rule="evenodd" clip-rule="evenodd" d="M6.5 2C5.96957 2 5.46086 2.21071 5.08579 2.58579C4.71071 2.96086 4.5 3.46957 4.5 4V16C4.5 16.5304 4.71071 17.0391 5.08579 17.4142C5.46086 17.7893 5.96957 18 6.5 18H14.5C15.0304 18 15.5391 17.7893 15.9142 17.4142C16.2893 17.0391 16.5 16.5304 16.5 16V7.414C16.4999 6.88361 16.2891 6.37499 15.914 6L12.5 2.586C12.125 2.2109 11.6164 2.00011 11.086 2H6.5ZM8.5 12C8.5 11.7348 8.39464 11.4804 8.20711 11.2929C8.01957 11.1054 7.76522 11 7.5 11C7.23478 11 6.98043 11.1054 6.79289 11.2929C6.60536 11.4804 6.5 11.7348 6.5 12V15C6.5 15.2652 6.60536 15.5196 6.79289 15.7071C6.98043 15.8946 7.23478 16 7.5 16C7.76522 16 8.01957 15.8946 8.20711 15.7071C8.39464 15.5196 8.5 15.2652 8.5 15V12ZM10.5 9C10.7652 9 11.0196 9.10536 11.2071 9.29289C11.3946 9.48043 11.5 9.73478 11.5 10V15C11.5 15.2652 11.3946 15.5196 11.2071 15.7071C11.0196 15.8946 10.7652 16 10.5 16C10.2348 16 9.98043 15.8946 9.79289 15.7071C9.60536 15.5196 9.5 15.2652 9.5 15V10C9.5 9.73478 9.60536 9.48043 9.79289 9.29289C9.98043 9.10536 10.2348 9 10.5 9ZM14.5 8C14.5 7.73478 14.3946 7.48043 14.2071 7.29289C14.0196 7.10536 13.7652 7 13.5 7C13.2348 7 12.9804 7.10536 12.7929 7.29289C12.6054 7.48043 12.5 7.73478 12.5 8V15C12.5 15.2652 12.6054 15.5196 12.7929 15.7071C12.9804 15.8946 13.2348 16 13.5 16C13.7652 16 14.0196 15.8946 14.2071 15.7071C14.3946 15.5196 14.5 15.2652 14.5 15V8Z" fill="#BF0B34"/>
</svg>
