<svg width="18" height="18" viewBox="0 0 18 18" fill="none" xmlns="http://www.w3.org/2000/svg">
<path d="M8.4375 2.25V9H9.5625V2.25H8.4375ZM6.75 2.637C4.13213 3.56513 2.25 6.06825 2.25 9C2.25 12.7221 5.27794 15.75 9 15.75C12.7221 15.75 15.75 12.7221 15.75 9C15.75 6.06769 13.8679 3.56512 11.25 2.63644V3.84975C13.2334 4.71937 14.625 6.69938 14.625 9C14.625 12.1016 12.1016 14.625 9 14.625C5.89838 14.625 3.375 12.1016 3.375 9C3.375 6.69938 4.76662 4.71937 6.75 3.84975V2.63644V2.637Z" fill="#AAAAAA"/>
</svg>
