<svg width="21" height="20" viewBox="0 0 21 20" fill="none" xmlns="http://www.w3.org/2000/svg">
<path d="M8.46917 6.25419L8.51584 6.35169L12.9383 17.1892C13.0188 17.3861 13.0209 17.6064 12.9442 17.8048C12.8675 18.0032 12.7178 18.1648 12.5258 18.2564C12.3338 18.348 12.1141 18.3628 11.9116 18.2976C11.7091 18.2324 11.5392 18.0923 11.4367 17.9059L11.395 17.8184L10.2442 15H5.00584L3.76417 17.8392C3.6822 18.0262 3.53439 18.1767 3.34882 18.2619C3.16324 18.3472 2.95282 18.3613 2.7575 18.3017L2.66584 18.2684C2.47864 18.1865 2.32801 18.0388 2.24259 17.8532C2.15717 17.6676 2.14291 17.4571 2.2025 17.2617L2.23584 17.17L6.98167 6.33335C7.26167 5.69169 8.14334 5.67085 8.47 6.25502L8.46917 6.25419ZM16.3333 1.66669C16.5374 1.66671 16.7345 1.74165 16.887 1.87728C17.0395 2.01292 17.137 2.19981 17.1608 2.40252L17.1667 2.50002V5.83335H18C18.2041 5.83338 18.4011 5.90832 18.5536 6.04395C18.7062 6.17958 18.8036 6.36648 18.8275 6.56919L18.8333 6.66669C18.8333 6.8708 18.7584 7.0678 18.6227 7.22033C18.4871 7.37286 18.3002 7.47031 18.0975 7.49419L18 7.50002H17.1667V13.3334C17.1666 13.5375 17.0917 13.7345 16.9561 13.887C16.8204 14.0395 16.6335 14.137 16.4308 14.1609L16.3333 14.1667C16.1292 14.1667 15.9322 14.0917 15.7797 13.9561C15.6272 13.8205 15.5297 13.6336 15.5058 13.4309L15.5 13.3334V2.50002C15.5 2.27901 15.5878 2.06704 15.7441 1.91076C15.9004 1.75448 16.1123 1.66669 16.3333 1.66669ZM7.71667 8.80585L5.735 13.3334H9.56417L7.71667 8.80585ZM9.66667 1.66669H13.8333C14.0374 1.66671 14.2345 1.74165 14.387 1.87728C14.5395 2.01292 14.637 2.19981 14.6608 2.40252L14.6667 2.50002V4.97919C14.6667 5.86324 14.3155 6.71109 13.6904 7.33621C13.0652 7.96133 12.2174 8.31252 11.3333 8.31252C11.1123 8.31252 10.9004 8.22472 10.7441 8.06844C10.5878 7.91216 10.5 7.7002 10.5 7.47919C10.5 7.25817 10.5878 7.04621 10.7441 6.88993C10.9004 6.73365 11.1123 6.64585 11.3333 6.64585C11.7538 6.64599 12.1588 6.48718 12.4671 6.20127C12.7754 5.91536 12.9643 5.52348 12.9958 5.10419L13 4.97919V3.33335H9.66667C9.45427 3.33312 9.24998 3.25179 9.09553 3.10598C8.94108 2.96017 8.84814 2.76089 8.83569 2.54886C8.82325 2.33682 8.89223 2.12804 9.02856 1.96516C9.16488 1.80228 9.35826 1.69761 9.56917 1.67252L9.66667 1.66669H13.8333H9.66667Z" fill="#B2B0B0"/>
</svg>
