<svg width="24" height="24" viewBox="0 0 24 24" fill="none" xmlns="http://www.w3.org/2000/svg">
<path fill-rule="evenodd" clip-rule="evenodd" d="M5.5 4.75C5.36193 4.75 5.25 4.86193 5.25 5V21C5.25 21.1381 5.36193 21.25 5.5 21.25H18.5C18.6381 21.25 18.75 21.1381 18.75 21V5C18.75 4.86193 18.6381 4.75 18.5 4.75H5.5ZM3.75 5C3.75 4.0335 4.5335 3.25 5.5 3.25H18.5C19.4665 3.25 20.25 4.0335 20.25 5V21C20.25 21.9665 19.4665 22.75 18.5 22.75H5.5C4.5335 22.75 3.75 21.9665 3.75 21V5Z" fill="#111111"/>
<path fill-rule="evenodd" clip-rule="evenodd" d="M9 1.25C9.41421 1.25 9.75 1.58579 9.75 2V5C9.75 5.41421 9.41421 5.75 9 5.75C8.58579 5.75 8.25 5.41421 8.25 5V2C8.25 1.58579 8.58579 1.25 9 1.25ZM15 1.25C15.4142 1.25 15.75 1.58579 15.75 2V5C15.75 5.41421 15.4142 5.75 15 5.75C14.5858 5.75 14.25 5.41421 14.25 5V2C14.25 1.58579 14.5858 1.25 15 1.25ZM7.25 9.5C7.25 9.08579 7.58579 8.75 8 8.75H16C16.4142 8.75 16.75 9.08579 16.75 9.5C16.75 9.91421 16.4142 10.25 16 10.25H8C7.58579 10.25 7.25 9.91421 7.25 9.5ZM7.25 13.5C7.25 13.0858 7.58579 12.75 8 12.75H14C14.4142 12.75 14.75 13.0858 14.75 13.5C14.75 13.9142 14.4142 14.25 14 14.25H8C7.58579 14.25 7.25 13.9142 7.25 13.5ZM7.25 17.5C7.25 17.0858 7.58579 16.75 8 16.75H12C12.4142 16.75 12.75 17.0858 12.75 17.5C12.75 17.9142 12.4142 18.25 12 18.25H8C7.58579 18.25 7.25 17.9142 7.25 17.5Z" fill="#111111"/>
</svg>
