<svg width="24" height="24" viewBox="0 0 24 24" fill="none" xmlns="http://www.w3.org/2000/svg">
<path fill-rule="evenodd" clip-rule="evenodd" d="M12 4.5C12 3.94772 12.4477 3.5 13 3.5H21C21.5523 3.5 22 3.94772 22 4.5C22 5.05228 21.5523 5.5 21 5.5H13C12.4477 5.5 12 5.05228 12 4.5ZM14.5 8.5C14.2239 8.5 14 8.72386 14 9C14 9.27614 14.2239 9.5 14.5 9.5H19.5C19.7761 9.5 20 9.27614 20 9C20 8.72386 19.7761 8.5 19.5 8.5H14.5ZM12 9C12 7.61929 13.1193 6.5 14.5 6.5H19.5C20.8807 6.5 22 7.61929 22 9C22 10.3807 20.8807 11.5 19.5 11.5H14.5C13.1193 11.5 12 10.3807 12 9ZM4.62114 13.7432C3.83646 14.1916 3.15595 14.7583 2.70711 15.2071C2.31658 15.5976 1.68342 15.5976 1.29289 15.2071C0.902369 14.8166 0.902369 14.1834 1.29289 13.7929C1.84405 13.2417 2.66354 12.5584 3.62886 12.0068C4.58593 11.4599 5.76077 11 7 11C7.63497 11 8.40941 11.1532 9.17543 11.364C9.95858 11.5794 10.8012 11.8745 11.5966 12.1992C12.3911 12.5234 13.1571 12.8848 13.7841 13.2383C14.0972 13.4148 14.3878 13.5962 14.6349 13.7769C14.8691 13.9482 15.1183 14.1577 15.3 14.4C15.6961 14.9282 15.709 15.5066 15.5788 15.9778C15.937 15.9093 16.3116 15.8382 16.6907 15.7671C17.6931 15.5792 18.732 15.3902 19.5856 15.248C20.3915 15.1137 21.1468 15 21.5 15C21.9057 15 22.3577 15.1014 22.721 15.4193C23.1018 15.7525 23.25 16.205 23.25 16.625C23.25 17.3889 22.7839 18.1303 22.2071 18.7071C21.6651 19.2491 20.4839 20.2978 19.0369 21.2187C17.6177 22.1217 15.7924 23 14 23C12.3307 23 10.953 22.5801 9.80877 22.1987C9.70139 22.1629 9.59713 22.1279 9.49572 22.0939C8.46239 21.7472 7.72542 21.5 7 21.5H2C1.44772 21.5 1 21.0523 1 20.5C1 19.9477 1.44772 19.5 2 19.5H7C8.07488 19.5 9.13865 19.8605 10.1007 20.1865C10.2157 20.2255 10.3293 20.264 10.4412 20.3013C11.547 20.6699 12.6693 21 14 21C15.2076 21 16.6323 20.3783 17.9631 19.5313C19.2661 18.7022 20.3349 17.7509 20.7929 17.2929C20.8779 17.2078 20.9494 17.1269 21.0088 17.0517C20.7384 17.0885 20.3696 17.1449 19.9144 17.2208C19.0805 17.3598 18.0569 17.5458 17.0593 17.7329C16.0627 17.9197 15.0967 18.1067 14.3795 18.247C14.021 18.3172 13.7249 18.3756 13.5186 18.4165L13.1964 18.4805C13.1964 18.4805 13.1961 18.4806 13 17.5L13.1964 18.4805C13.0258 18.5147 12.8489 18.5037 12.6838 18.4487L9.68377 17.4487C9.15983 17.274 8.87667 16.7077 9.05132 16.1838C9.22597 15.6598 9.79228 15.3767 10.3162 15.5513L12.8195 16.3857C12.9742 16.2594 13.1474 16.1056 13.3017 15.9411C13.4653 15.7665 13.567 15.6225 13.6188 15.5213C13.577 15.4848 13.5226 15.4413 13.454 15.3911C13.2899 15.271 13.0708 15.1321 12.8019 14.9805C12.2647 14.6777 11.5777 14.3516 10.8409 14.0508C10.105 13.7505 9.33829 13.4831 8.64488 13.2923C7.93434 13.0968 7.36503 13 7 13C6.23923 13 5.41407 13.2901 4.62114 13.7432Z" fill="#111111"/>
</svg>
