<svg width="24" height="24" viewBox="0 0 24 24" fill="none" xmlns="http://www.w3.org/2000/svg">
<path fill-rule="evenodd" clip-rule="evenodd" d="M11.5097 2.12842C11.8141 1.95719 12.1858 1.95719 12.4902 2.12842L20.4761 6.62052C20.6367 6.70725 20.7754 6.83894 20.8715 7.00974C20.962 7.17061 21.0032 7.34582 20.9999 7.51792V12C20.9999 12.5523 20.5522 13 19.9999 13C19.4476 13 18.9999 12.5523 18.9999 12V9.20985L12.9999 12.5848V20.9821C13.0016 21.0725 12.9911 21.1638 12.9675 21.2535C12.9367 21.3715 12.8848 21.4811 12.8162 21.5779C12.7319 21.6972 12.6251 21.7932 12.5049 21.8633C12.3848 21.9337 12.2487 21.9798 12.1034 21.9947C11.9853 22.0071 11.8642 21.9986 11.7461 21.9675C11.6566 21.9441 11.572 21.9086 11.4941 21.8628L3.50967 17.3716C3.19479 17.1945 2.99993 16.8613 2.99993 16.5V7.5179C2.99671 7.34681 3.03739 7.17265 3.12678 7.01256C3.12786 7.01061 3.12896 7.00867 3.13006 7.00672C3.22607 6.83739 3.36412 6.70674 3.52372 6.62052L11.5097 2.12842ZM4.99993 9.20985V15.9152L10.9999 19.2902V12.5848L4.99993 9.20985ZM11.9999 10.8527L6.03966 7.5L11.9999 4.14735L17.9602 7.5L11.9999 10.8527ZM18.707 14.2929C19.0976 14.6834 19.0976 15.3166 18.707 15.7071L17.4141 17H21.9999C22.5522 17 22.9999 17.4477 22.9999 18C22.9999 18.5523 22.5522 19 21.9999 19H17.4141L18.707 20.2929C19.0976 20.6834 19.0976 21.3166 18.707 21.7071C18.3165 22.0976 17.6834 22.0976 17.2928 21.7071L14.2936 18.7078C14.2911 18.7054 14.2887 18.703 14.2863 18.7006C14.1937 18.6062 14.1235 18.498 14.0758 18.3828C14.0273 18.2657 14.0003 18.1375 13.9999 18.003C13.9999 18.002 13.9999 18.001 13.9999 18C13.9999 17.999 13.9999 17.998 13.9999 17.997C14.0007 17.7254 14.1098 17.4792 14.2863 17.2995C14.2887 17.297 14.2911 17.2946 14.2935 17.2922L17.2928 14.2929C17.6834 13.9024 18.3165 13.9024 18.707 14.2929Z" fill="#111111"/>
</svg>
