<svg width="24" height="24" viewBox="0 0 24 24" fill="none" xmlns="http://www.w3.org/2000/svg">
<path d="M20.25 16.6058V13.5C20.25 13.1022 20.092 12.7206 19.8107 12.4393C19.5294 12.158 19.1478 12 18.75 12H12.75V9H14.25C14.6477 8.9996 15.029 8.84144 15.3102 8.56022C15.5914 8.279 15.7496 7.8977 15.75 7.5V3C15.7496 2.6023 15.5914 2.221 15.3102 1.93978C15.029 1.65856 14.6477 1.5004 14.25 1.5H9.75001C9.3523 1.5004 8.971 1.65856 8.68979 1.93978C8.40857 2.221 8.2504 2.6023 8.25001 3V7.5C8.2504 7.8977 8.40857 8.279 8.68979 8.56022C8.971 8.84144 9.3523 8.9996 9.75001 9H11.25V12H5.25001C4.85218 12 4.47065 12.158 4.18935 12.4393C3.90804 12.7206 3.75001 13.1022 3.75001 13.5V16.6065C3.04301 16.789 2.42687 17.2232 2.01706 17.8275C1.60725 18.4318 1.43191 19.1649 1.52392 19.8893C1.61592 20.6136 1.96895 21.2795 2.51683 21.7622C3.06471 22.2449 3.76983 22.5112 4.50001 22.5112C5.23019 22.5112 5.9353 22.2449 6.48318 21.7622C7.03106 21.2795 7.38409 20.6136 7.4761 19.8893C7.5681 19.1649 7.39277 18.4318 6.98296 17.8275C6.57315 17.2232 5.957 16.789 5.25001 16.6065V13.5H11.25V16.6065C10.543 16.789 9.92687 17.2232 9.51706 17.8275C9.10725 18.4318 8.93191 19.1649 9.02392 19.8893C9.11592 20.6136 9.46895 21.2795 10.0168 21.7622C10.5647 22.2449 11.2698 22.5112 12 22.5112C12.7302 22.5112 13.4353 22.2449 13.9832 21.7622C14.5311 21.2795 14.8841 20.6136 14.9761 19.8893C15.0681 19.1649 14.8928 18.4318 14.483 17.8275C14.0732 17.2232 13.457 16.789 12.75 16.6065V13.5H18.75V16.6058C18.043 16.7883 17.4269 17.2224 17.0171 17.8268C16.6072 18.4311 16.4319 19.1641 16.5239 19.8885C16.6159 20.6129 16.969 21.2788 17.5168 21.7615C18.0647 22.2442 18.7698 22.5105 19.5 22.5105C20.2302 22.5105 20.9353 22.2442 21.4832 21.7615C22.0311 21.2788 22.3841 20.6129 22.4761 19.8885C22.5681 19.1641 22.3928 18.4311 21.983 17.8268C21.5732 17.2224 20.957 16.7883 20.25 16.6058V16.6058ZM9.75001 3H14.25L14.2508 7.5H9.75001V3ZM6.00001 19.5C6.00001 19.7967 5.91203 20.0867 5.74721 20.3334C5.58239 20.58 5.34812 20.7723 5.07403 20.8858C4.79994 20.9994 4.49834 21.0291 4.20737 20.9712C3.9164 20.9133 3.64913 20.7704 3.43935 20.5607C3.22957 20.3509 3.08671 20.0836 3.02883 19.7926C2.97095 19.5017 3.00066 19.2001 3.11419 18.926C3.22772 18.6519 3.41998 18.4176 3.66665 18.2528C3.91333 18.088 4.20334 18 4.50001 18C4.89771 18.0004 5.27901 18.1586 5.56023 18.4398C5.84145 18.721 5.99961 19.1023 6.00001 19.5ZM13.5 19.5C13.5 19.7967 13.412 20.0867 13.2472 20.3334C13.0824 20.58 12.8481 20.7723 12.574 20.8858C12.2999 20.9994 11.9983 21.0291 11.7074 20.9712C11.4164 20.9133 11.1491 20.7704 10.9393 20.5607C10.7296 20.3509 10.5867 20.0836 10.5288 19.7926C10.471 19.5017 10.5007 19.2001 10.6142 18.926C10.7277 18.6519 10.92 18.4176 11.1667 18.2528C11.4133 18.088 11.7033 18 12 18C12.3977 18.0006 12.7788 18.1588 13.06 18.44C13.3412 18.7212 13.4994 19.1024 13.5 19.5ZM19.5 21C19.2033 21 18.9133 20.912 18.6667 20.7472C18.42 20.5824 18.2277 20.3481 18.1142 20.074C18.0007 19.7999 17.971 19.4983 18.0288 19.2074C18.0867 18.9164 18.2296 18.6491 18.4393 18.4393C18.6491 18.2296 18.9164 18.0867 19.2074 18.0288C19.4983 17.9709 19.7999 18.0006 20.074 18.1142C20.3481 18.2277 20.5824 18.42 20.7472 18.6666C20.912 18.9133 21 19.2033 21 19.5C20.9996 19.8977 20.8414 20.279 20.5602 20.5602C20.279 20.8414 19.8977 20.9996 19.5 21Z" fill="#111111"/>
</svg>
