<svg width="18" height="18" viewBox="0 0 18 18" fill="none" xmlns="http://www.w3.org/2000/svg">
<path d="M10.5593 1.125C10.6784 1.125 10.7944 1.1628 10.8907 1.23296C10.9869 1.30311 11.0584 1.402 11.0948 1.51538L11.7136 3.438C11.9734 3.56512 12.2221 3.708 12.4594 3.86887L14.4349 3.44363C14.5514 3.41876 14.6728 3.4315 14.7815 3.48002C14.8903 3.52855 14.9809 3.61034 15.0402 3.71363L16.5994 6.4125C16.659 6.51573 16.6842 6.63519 16.6715 6.75368C16.6587 6.87216 16.6087 6.98354 16.5286 7.07175L15.1729 8.568C15.1927 8.85491 15.1927 9.14284 15.1729 9.42975L16.5286 10.9282C16.6087 11.0165 16.6587 11.1278 16.6715 11.2463C16.6842 11.3648 16.659 11.4843 16.5994 11.5875L15.0402 14.2875C14.9807 14.3906 14.8901 14.4721 14.7813 14.5205C14.6726 14.5688 14.5513 14.5813 14.4349 14.5564L12.4594 14.1311C12.2232 14.2909 11.9734 14.4349 11.7147 14.562L11.0948 16.4846C11.0584 16.598 10.9869 16.6969 10.8907 16.767C10.7944 16.8372 10.6784 16.875 10.5593 16.875H7.44081C7.32172 16.875 7.2057 16.8372 7.10947 16.767C7.01324 16.6969 6.94175 16.598 6.90531 16.4846L6.28769 14.5631C6.02851 14.4364 5.77852 14.2917 5.53956 14.13L3.56519 14.5564C3.44871 14.5812 3.32734 14.5685 3.21857 14.52C3.1098 14.4715 3.01924 14.3897 2.95994 14.2864L1.40069 11.5875C1.34114 11.4843 1.31592 11.3648 1.32866 11.2463C1.3414 11.1278 1.39144 11.0165 1.47156 10.9282L2.82719 9.42975C2.80755 9.14359 2.80755 8.85641 2.82719 8.57025L1.47156 7.07175C1.39144 6.98354 1.3414 6.87216 1.32866 6.75368C1.31592 6.63519 1.34114 6.51573 1.40069 6.4125L2.95994 3.7125C3.01941 3.60942 3.11004 3.52786 3.2188 3.47955C3.32755 3.43123 3.44883 3.41865 3.56519 3.44363L5.53956 3.87C5.77806 3.70913 6.02781 3.564 6.28769 3.43688L6.90644 1.51538C6.94276 1.40236 7.0139 1.30374 7.10969 1.23362C7.20547 1.1635 7.32098 1.12548 7.43969 1.125H10.5582H10.5593ZM10.1476 2.25H7.85256L7.21356 4.23787L6.78269 4.44825C6.57087 4.5519 6.36639 4.66993 6.17069 4.8015L5.77244 5.0715L3.72944 4.6305L2.58194 6.6195L3.98256 8.16975L3.94881 8.64675C3.93265 8.88197 3.93265 9.11803 3.94881 9.35325L3.98256 9.83025L2.57969 11.3805L3.72831 13.3695L5.77131 12.9296L6.16956 13.1985C6.36527 13.3301 6.56974 13.4481 6.78156 13.5517L7.21244 13.7621L7.85256 15.75H10.1498L10.7911 13.761L11.2208 13.5517C11.4324 13.4483 11.6365 13.3303 11.8317 13.1985L12.2288 12.9296L14.2729 13.3695L15.4204 11.3805L14.0187 9.83025L14.0524 9.35325C14.0687 9.11765 14.0687 8.88122 14.0524 8.64563L14.0187 8.16863L15.4216 6.6195L14.2729 4.6305L12.2288 5.06925L11.8317 4.8015C11.6365 4.66967 11.4324 4.55163 11.2208 4.44825L10.7911 4.239L10.1487 2.25H10.1476ZM9.00006 5.625C9.89517 5.625 10.7536 5.98058 11.3865 6.61351C12.0195 7.24645 12.3751 8.10489 12.3751 9C12.3751 9.89511 12.0195 10.7536 11.3865 11.3865C10.7536 12.0194 9.89517 12.375 9.00006 12.375C8.10496 12.375 7.24651 12.0194 6.61358 11.3865C5.98064 10.7536 5.62506 9.89511 5.62506 9C5.62506 8.10489 5.98064 7.24645 6.61358 6.61351C7.24651 5.98058 8.10496 5.625 9.00006 5.625ZM9.00006 6.75C8.40332 6.75 7.83103 6.98705 7.40907 7.40901C6.98711 7.83097 6.75006 8.40326 6.75006 9C6.75006 9.59674 6.98711 10.169 7.40907 10.591C7.83103 11.0129 8.40332 11.25 9.00006 11.25C9.5968 11.25 10.1691 11.0129 10.5911 10.591C11.013 10.169 11.2501 9.59674 11.2501 9C11.2501 8.40326 11.013 7.83097 10.5911 7.40901C10.1691 6.98705 9.5968 6.75 9.00006 6.75Z" fill="#AAAAAA"/>
</svg>
