<svg width="21" height="20" viewBox="0 0 21 20" fill="none" xmlns="http://www.w3.org/2000/svg">
<path d="M10.5 18.3333C5.89996 18.3283 2.17163 14.6 2.16663 9.99996V9.83329C2.25829 5.25412 6.02913 1.60662 10.6083 1.66662C15.1891 1.72829 18.8616 5.47412 18.8316 10.0541C18.8016 14.635 15.0808 18.3333 10.5 18.3333ZM10.4866 16.6666H10.5C12.2675 16.6649 13.962 15.9612 15.2109 14.7105C16.4598 13.4597 17.1608 11.7642 17.16 9.99663C17.1591 8.22909 16.4563 6.53426 15.2062 5.28474C13.956 4.03521 12.2608 3.33329 10.4933 3.33329C8.72576 3.33329 7.03057 4.03521 5.78043 5.28474C4.53028 6.53426 3.82751 8.22909 3.82663 9.99663C3.82574 11.7642 4.52682 13.4597 5.77571 14.7105C7.02461 15.9612 8.71909 16.6649 10.4866 16.6666ZM11.3333 15H9.66663V13.3333H11.3333V15ZM11.3333 12.5H9.66663C9.65369 11.967 9.78366 11.4404 10.043 10.9747C10.3024 10.509 10.6817 10.1212 11.1416 9.85162C11.6916 9.42996 12.1666 9.06662 12.1666 8.33329C12.1666 7.89126 11.991 7.46734 11.6785 7.15478C11.3659 6.84222 10.942 6.66662 10.5 6.66662C10.0579 6.66662 9.63401 6.84222 9.32145 7.15478C9.00889 7.46734 8.83329 7.89126 8.83329 8.33329H7.16663V8.25829C7.17657 7.37424 7.5373 6.53034 8.16945 5.91225C8.80161 5.29416 9.6534 4.95251 10.5375 4.96246C11.4215 4.9724 12.2654 5.33313 12.8835 5.96528C13.5016 6.59744 13.8432 7.44923 13.8333 8.33329C13.8039 8.77671 13.6709 9.20706 13.4452 9.58984C13.2194 9.97261 12.9071 10.2972 12.5333 10.5375C12.1953 10.7496 11.911 11.0373 11.7028 11.3778C11.4946 11.7183 11.3681 12.1024 11.3333 12.5Z" fill="#B2B0B0"/>
</svg>
