<svg width="20" height="20" viewBox="0 0 20 20" fill="none" xmlns="http://www.w3.org/2000/svg">
<g clip-path="url(#clip0_1_3241)">
<path d="M16.4062 5.00391V0.625H3.59375V5.00391C2.79333 5.04493 2.03917 5.39154 1.4868 5.97226C0.93442 6.55298 0.625951 7.32353 0.625 8.125V15.625H3.28125V14.375H1.875V8.125C1.87556 7.62789 2.07328 7.1513 2.42479 6.79979C2.7763 6.44828 3.25289 6.25056 3.75 6.25H16.25C16.7471 6.25056 17.2237 6.44828 17.5752 6.79979C17.9267 7.1513 18.1244 7.62789 18.125 8.125V14.375H16.4062V15.625H19.375V8.125C19.3741 7.32353 19.0656 6.55298 18.5132 5.97226C17.9608 5.39154 17.2067 5.04493 16.4062 5.00391ZM15.1562 5H4.84375V1.875H15.1562V5Z" fill="#B2B0B0"/>
<path d="M15.4688 7.8125H16.7188V9.0625H15.4688V7.8125ZM4.53125 10.3125H2.96875V11.5625H4.53125V19.375H15.1562V11.5625H16.7188V10.3125H4.53125ZM13.9062 18.125H5.78125V11.5625H13.9062V18.125Z" fill="#B2B0B0"/>
</g>
<defs>
<clipPath id="clip0_1_3241">
<rect width="20" height="20" fill="white"/>
</clipPath>
</defs>
</svg>
