<svg width="21" height="20" viewBox="0 0 21 20" fill="none" xmlns="http://www.w3.org/2000/svg">
<path d="M4.25 4.58334H16.75V5.83334H4.25V4.58334Z" fill="#424242"/>
<path d="M2.16675 10.4167H18.8334V7.5C18.8334 6.58334 18.0834 5.83334 17.1667 5.83334H3.83341C2.91675 5.83334 2.16675 6.58334 2.16675 7.5V10.4167Z" fill="#616161"/>
<path d="M3.83341 15H17.1667C18.0834 15 18.8334 14.25 18.8334 13.3333V10H2.16675V13.3333C2.16675 14.25 2.91675 15 3.83341 15Z" fill="#424242"/>
<path d="M17.1667 7.91667C17.3968 7.91667 17.5833 7.73012 17.5833 7.5C17.5833 7.26988 17.3968 7.08334 17.1667 7.08334C16.9365 7.08334 16.75 7.26988 16.75 7.5C16.75 7.73012 16.9365 7.91667 17.1667 7.91667Z" fill="#00E676"/>
<path d="M5.08325 1.66666H15.9166V5.83333H5.08325V1.66666Z" fill="#90CAF9"/>
<path d="M16.125 12.9167H4.875C4.54167 12.9167 4.25 12.625 4.25 12.2917C4.25 11.9583 4.54167 11.6667 4.875 11.6667H16.125C16.4583 11.6667 16.75 11.9583 16.75 12.2917C16.75 12.625 16.4583 12.9167 16.125 12.9167Z" fill="#242424"/>
<path d="M5.08325 12.9167H15.9166V17.5H5.08325V12.9167Z" fill="#90CAF9"/>
<path d="M5.08325 12.0833H15.9166V12.9167H5.08325V12.0833Z" fill="#42A5F5"/>
<path d="M7.16675 13.75H14.2501V14.5833H7.16675V13.75ZM7.16675 15.4167H12.5834V16.25H7.16675V15.4167Z" fill="#1976D2"/>
</svg>
