<svg width="20" height="20" viewBox="0 0 20 20" fill="none" xmlns="http://www.w3.org/2000/svg">
<g clip-path="url(#clip0_17_5)">
<path d="M14.7083 5.29165C13.5 4.08331 11.8417 3.33331 10 3.33331C6.31667 3.33331 3.34167 6.31665 3.34167 9.99998C3.34167 13.6833 6.31667 16.6666 10 16.6666C13.1083 16.6666 15.7 14.5416 16.4417 11.6666H14.7083C14.025 13.6083 12.175 15 10 15C7.24167 15 5.00001 12.7583 5.00001 9.99998C5.00001 7.24165 7.24167 4.99998 10 4.99998C11.3833 4.99998 12.6167 5.57498 13.5167 6.48331L10.8333 9.16665H16.6667V3.33331L14.7083 5.29165Z" fill="white"/>
</g>
<defs>
<clipPath id="clip0_17_5">
<rect width="20" height="20" fill="white"/>
</clipPath>
</defs>
</svg>
