<svg width="20" height="20" viewBox="0 0 20 20" fill="none" xmlns="http://www.w3.org/2000/svg">
<path d="M4.16667 17.5H15.8333C16.2754 17.5 16.6993 17.3244 17.0118 17.0118C17.3244 16.6993 17.5 16.2754 17.5 15.8333V6.66667C17.5006 6.55699 17.4796 6.44827 17.4381 6.34674C17.3967 6.24521 17.3356 6.15287 17.2583 6.075L13.925 2.74167C13.8471 2.66443 13.7548 2.60333 13.6533 2.56186C13.5517 2.52039 13.443 2.49936 13.3333 2.5H4.16667C3.72464 2.5 3.30072 2.67559 2.98816 2.98815C2.67559 3.30071 2.5 3.72464 2.5 4.16667V15.8333C2.5 16.2754 2.67559 16.6993 2.98816 17.0118C3.30072 17.3244 3.72464 17.5 4.16667 17.5ZM12.5 15.8333H7.5V11.6667H12.5V15.8333ZM10.8333 5.83333H9.16667V4.16667H10.8333V5.83333ZM4.16667 4.16667H5.83333V7.5H12.5V4.16667H12.9917L15.8333 7.00833V15.8333H14.1667V11.6667C14.1667 11.2246 13.9911 10.8007 13.6785 10.4882C13.3659 10.1756 12.942 10 12.5 10H7.5C7.05797 10 6.63405 10.1756 6.32149 10.4882C6.00893 10.8007 5.83333 11.2246 5.83333 11.6667V15.8333H4.16667V4.16667Z" fill="#B2B0B0"/>
</svg>
