<svg width="20" height="20" viewBox="0 0 20 20" fill="none" xmlns="http://www.w3.org/2000/svg">
<path d="M8.33327 1.66666C7.29041 1.66721 6.26222 1.91242 5.33135 2.38256C4.40048 2.85271 3.59289 3.53468 2.97348 4.37366C2.35407 5.21265 1.94013 6.18525 1.76493 7.21328C1.58972 8.24132 1.65813 9.29612 1.96467 10.2929C2.27121 11.2897 2.80732 12.2007 3.52991 12.9526C4.25251 13.7046 5.14143 14.2765 6.12523 14.6225C7.10904 14.9684 8.16028 15.0788 9.19448 14.9446C10.2287 14.8104 11.217 14.4355 12.0799 13.85L16.1999 17.9667C16.3144 18.0895 16.4524 18.188 16.6057 18.2563C16.759 18.3246 16.9246 18.3613 17.0924 18.3643C17.2602 18.3673 17.427 18.3364 17.5826 18.2735C17.7382 18.2107 17.8796 18.1171 17.9983 17.9984C18.117 17.8797 18.2106 17.7383 18.2735 17.5827C18.3363 17.427 18.3672 17.2603 18.3643 17.0925C18.3613 16.9246 18.3246 16.7591 18.2562 16.6058C18.1879 16.4524 18.0894 16.3144 17.9666 16.2L13.8499 12.08C14.531 11.0776 14.926 9.90858 14.9923 8.69855C15.0587 7.48852 14.794 6.28328 14.2267 5.21243C13.6594 4.14157 12.811 3.2456 11.7726 2.62085C10.7342 1.99611 9.54512 1.66622 8.33327 1.66666ZM4.1666 8.33332C4.1666 7.22826 4.60559 6.16845 5.38699 5.38705C6.16839 4.60564 7.2282 4.16666 8.33327 4.16666C9.43834 4.16666 10.4981 4.60564 11.2795 5.38705C12.0609 6.16845 12.4999 7.22826 12.4999 8.33332C12.4999 9.43839 12.0609 10.4982 11.2795 11.2796C10.4981 12.061 9.43834 12.5 8.33327 12.5C7.2282 12.5 6.16839 12.061 5.38699 11.2796C4.60559 10.4982 4.1666 9.43839 4.1666 8.33332Z" fill="white"/>
</svg>
