<svg width="21" height="20" viewBox="0 0 21 20" fill="none" xmlns="http://www.w3.org/2000/svg">
<path d="M3.20725 1.98071L18.2572 9.17857C18.4094 9.2512 18.5378 9.36542 18.6277 9.508C18.7177 9.65059 18.7654 9.81571 18.7654 9.98428C18.7654 10.1529 18.7177 10.318 18.6277 10.4606C18.5378 10.6031 18.4094 10.7174 18.2572 10.79L3.20725 17.9879C3.05296 18.0618 2.8807 18.0898 2.71095 18.0686C2.54119 18.0474 2.3811 17.9779 2.24972 17.8683C2.11834 17.7588 2.0212 17.6138 1.96986 17.4506C1.91851 17.2874 1.91513 17.1129 1.9601 16.9479L3.46582 11.4279C3.48425 11.3602 3.52219 11.2995 3.5749 11.2532C3.62761 11.207 3.69277 11.1773 3.76225 11.1679L11.0551 10.1771C11.0856 10.1728 11.1144 10.1607 11.1388 10.1419C11.1632 10.1231 11.1824 10.0983 11.1944 10.07L11.2072 10.0257C11.2129 9.98583 11.2049 9.94522 11.1845 9.91047C11.1642 9.87572 11.1326 9.84887 11.0951 9.83428L11.0558 9.82357L3.7701 8.83285C3.70076 8.82327 3.63575 8.79351 3.58318 8.74729C3.5306 8.70106 3.49277 8.6404 3.47439 8.57285L1.9601 3.02143C1.91494 2.85633 1.91819 2.68173 1.96946 2.51843C2.02073 2.35512 2.11785 2.20999 2.24927 2.10033C2.38068 1.99067 2.54085 1.92109 2.7107 1.89988C2.88054 1.87867 3.0529 1.90673 3.20725 1.98071Z" fill="#BF0B34"/>
</svg>
