<svg width="20" height="20" viewBox="0 0 20 20" fill="none" xmlns="http://www.w3.org/2000/svg">
<path d="M4.74506 10L1.91589 2.72503C1.71922 2.2192 2.21256 1.73503 2.70089 1.90753L2.77839 1.94003L17.7784 9.44003C17.8751 9.48834 17.9577 9.56092 18.018 9.65067C18.0782 9.74042 18.1142 9.84428 18.1224 9.9521C18.1305 10.0599 18.1105 10.168 18.0644 10.2658C18.0183 10.3636 17.9476 10.4477 17.8592 10.51L17.7784 10.5584L2.77839 18.0584C2.29256 18.3009 1.76422 17.8542 1.89089 17.3517L1.91589 17.2725L4.74506 10L1.91589 2.72503L4.74506 10ZM3.66839 3.78336L5.84339 9.37503H11.3659C11.5169 9.37504 11.6628 9.42973 11.7767 9.529C11.8905 9.62827 11.9645 9.7654 11.9851 9.91503L11.9909 10C11.9909 10.1512 11.936 10.2972 11.8366 10.4111C11.7372 10.5249 11.5998 10.5988 11.4501 10.6192L11.3659 10.625H5.84172L3.66756 16.2167L16.1017 10L3.66756 3.78336H3.66839Z" fill="#B2B0B0"/>
</svg>
